<svg width="57" height="56" fill="none" xmlns="http://www.w3.org/2000/svg"><g clip-path="url('#clip0_9_20')" fill="#070708"><path d="M28.066 1.653C13.516 1.653 1.72 13.45 1.72 28c0 14.551 11.796 26.348 26.347 26.348 14.551 0 26.347-11.797 26.347-26.348 0-14.55-11.795-26.347-26.347-26.347Zm0-1.653c15.44 0 28 12.56 28 28s-12.56 28-28 28-28-12.56-28-28 12.561-28 28-28Z"/><path d="M28.009 53.032h.148a24.852 24.852 0 0 0 14.574-4.75.444.444 0 0 0 .043-.029l.108-.079c4.166-3.072 7.229-7.253 8.88-12.11a.437.437 0 0 0 .027-.066l.084-.261A25.049 25.049 0 0 0 53.098 28c0-.758-.038-1.551-.114-2.356l-.051-.552a.461.461 0 0 0-.03-.126 24.762 24.762 0 0 0-2.68-8.603.466.466 0 0 0-.04-.096l-.2-.364a25.008 25.008 0 0 0-6.09-7.294l-.005-.004-.004-.004a25.135 25.135 0 0 0-4.617-2.985.4.4 0 0 0-.063-.037l-.166-.082a24.873 24.873 0 0 0-7.13-2.231c-.014-.004-.03-.006-.044-.009l-.104-.016-.033-.003A24.907 24.907 0 0 0 29.363 3h-.004c-.405-.02-.804-.03-1.198-.031l-.037-.002h-.114c-.013 0-.025 0-.037.002a26.65 26.65 0 0 0-1.187.03c-.774.04-1.56.118-2.354.233l-.03.004-.133.02a24.872 24.872 0 0 0-7.158 2.232l-.182.09a.575.575 0 0 0-.063.037A25.045 25.045 0 0 0 6.15 15.904l-.202.363a.432.432 0 0 0-.04.097 24.723 24.723 0 0 0-2.68 8.607.456.456 0 0 0-.029.12l-.05.553a25.014 25.014 0 0 0 1.107 10.08l.087.273a.482.482 0 0 0 .029.07 24.927 24.927 0 0 0 8.84 12.078l.02.016.126.092.043.029a24.84 24.84 0 0 0 14.574 4.748h.034l-.001.002Zm14.084-5.558a23.796 23.796 0 0 1-13.512 4.523v-7.412l.28-.005c.092 0 .185-.002.276-.005.18-.006.36-.017.54-.027l.255-.013c.081-.003.161-.008.242-.013.215-.015.428-.035.642-.054l.386-.033c.266-.028.529-.061.79-.096l.23-.027c.672-.093 1.349-.21 2.01-.35l.064-.013c.331-.072.627-.138.922-.21l.381-.101c.198-.052.396-.103.591-.158.081-.023.162-.048.243-.073l.28-.085a13.945 13.945 0 0 0 .71-.227l.281-.098c.13-.044.26-.088.388-.135.102-.037.202-.075.302-.115l.289-.111c.113-.043.226-.086.337-.131.11-.045.22-.093.33-.14l.277-.12c.102-.043.204-.086.304-.131.115-.051.229-.106.342-.16l.259-.123c.099-.046.196-.093.294-.14.114-.057.228-.116.34-.176l.251-.13c.095-.05.191-.098.286-.15.114-.063.228-.127.34-.192l.248-.14c.09-.05.18-.102.269-.155l.07-.042-.011.43a24.792 24.792 0 0 1-.066 1.385l-.035.593c-.01.174-.02.35-.032.528-.034.449-.078.905-.121 1.361l-.03.33c-.008.1-.016.202-.027.305a74.12 74.12 0 0 1-.213 1.836h-.002ZM27.55 44.585v7.412a23.8 23.8 0 0 1-13.512-4.523c-.08-.618-.15-1.231-.213-1.837l-.027-.302-.022-.247c-.048-.504-.094-.979-.128-1.446-.014-.177-.023-.352-.033-.526l-.036-.603c-.018-.273-.036-.546-.047-.814-.008-.19-.012-.379-.018-.566l-.011-.427.07.042c.09.053.18.103.27.155l.245.139a16.019 16.019 0 0 0 .634.345l.24.124c.115.06.23.122.347.179l.292.14.27.127c.11.053.22.106.332.155.103.047.207.091.311.135l.28.12c.106.047.213.093.32.137.112.046.225.089.338.132l.287.11c.1.039.2.079.302.116.128.046.257.09.386.134l.287.097a13.68 13.68 0 0 0 .717.23l.271.082c.08.024.16.05.242.073.186.053.375.102.562.15l.41.11c.294.072.59.139.888.202l.096.022c.663.14 1.339.257 2.01.35l.232.027c.262.035.524.067.788.095l.317.027c.268.025.489.046.712.06.08.006.16.01.24.014l.257.013c.18.01.359.02.539.027.092.003.184.004.276.005l.28.005Zm23.31-9.065a23.86 23.86 0 0 1-7.627 11.08l.038-.33a27.808 27.808 0 0 0 .141-1.406l.054-.614a28.633 28.633 0 0 0 .112-1.602l.023-.413c.014-.265.03-.53.039-.79.018-.473.034-.943.041-1.405.214-.144.422-.292.63-.442l.191-.133c.069-.046.139-.094.205-.143.393-.29.78-.596 1.153-.91.084-.07.164-.143.243-.215l.264-.236c.197-.173.394-.345.582-.524.095-.092.187-.186.278-.28l.284-.288c.152-.153.305-.305.45-.463.098-.106.19-.215.283-.326l.272-.314c.128-.146.255-.292.375-.441.096-.12.186-.242.276-.364l.244-.324c.11-.145.222-.292.326-.44.091-.132.176-.265.262-.4l.21-.325c.098-.148.196-.297.286-.449l.016-.026.021.123.042.246c.015.083.03.165.042.248.032.204.06.41.088.617l.054.38c.038.301.072.605.103.91Zm-38.409 4.521c.008.543.025 1.098.049 1.65.003.086.008.173.015.26l.011.195c.025.501.051 1.006.09 1.519.01.146.025.295.038.444l.042.489a35.562 35.562 0 0 0 .156 1.606l.046.395A23.867 23.867 0 0 1 5.27 35.52c.031-.303.066-.607.105-.91l.053-.386c.028-.204.056-.409.088-.61l.041-.246.041-.244.022-.128.014.025c.095.159.196.314.299.47l.213.33c.08.125.16.25.245.373.112.161.232.319.353.476l.237.316c.084.112.167.226.256.336.13.163.27.321.409.48l.263.305c.084.1.169.2.258.297.154.168.317.33.48.493l.275.279c.084.087.169.175.257.26.205.195.42.383.635.572l.234.208c.072.066.144.132.22.197.378.317.769.626 1.162.917.062.045.125.089.19.132l.172.119c.216.155.434.31.657.461h.002Zm15.1-9.222v12.734l-.244-.005c-.093 0-.187-.002-.28-.005a15.385 15.385 0 0 1-.409-.02l-.328-.018-.268-.014a20.04 20.04 0 0 1-.411-.034l-.312-.028c-.091-.007-.182-.014-.273-.023-.142-.015-.283-.033-.424-.05l-.305-.038a7.897 7.897 0 0 1-.256-.031c-.159-.022-.316-.048-.474-.073l-.268-.043a6.946 6.946 0 0 1-.233-.037c-.173-.03-.344-.064-.516-.098l-.448-.086c-.194-.04-.386-.087-.579-.132l-.371-.086c-.246-.06-.49-.128-.732-.195l-.207-.055a26.484 26.484 0 0 1-3.618-1.324l-.059.098-.036-.017.047-.105a24.717 24.717 0 0 1-.815-.387l-.13-.068c-.24-.121-.48-.244-.716-.373l-.182-.103c-.216-.12-.432-.241-.645-.367l-.21-.13a32.612 32.612 0 0 1-.372-.23c-.001-.407.004-.81.01-1.212l.002-.308c.026-1.174.092-2.336.196-3.454l.022-.194.02-.176c.044-.432.088-.863.144-1.287.014-.105.03-.21.046-.314l.057-.379c.044-.307.088-.616.14-.917.02-.123.044-.243.068-.363l.085-.45c.047-.252.094-.503.146-.75.027-.129.058-.255.088-.38l.11-.47c.051-.223.102-.445.158-.663.034-.131.072-.26.109-.39l.122-.434.004-.014c.047.031.095.062.143.091.094.058.19.113.284.169l.206.12c.08.048.16.095.241.14.097.054.196.107.295.159l.22.116c.079.042.158.085.24.126.1.051.205.1.309.15l.229.11a10.302 10.302 0 0 0 .556.252l.236.102a10.041 10.041 0 0 0 .585.239l.236.091c.08.032.16.063.241.093.117.043.236.083.355.123l.24.083c.08.029.16.057.243.083.12.039.244.076.367.113l.254.078.233.07c.168.047.339.09.51.135l.36.095c.293.072.588.14.887.201l.163.032c.244.05.488.097.735.14.073.013.146.024.22.035l.245.038c.15.023.298.047.448.068.076.01.152.02.228.028l.256.03c.147.019.294.038.441.052.082.01.165.015.248.023l.268.023c.139.012.278.024.417.034.088.006.178.01.267.014l.274.014a15.729 15.729 0 0 0 .671.025l.195.003Zm1.553 12.724a9.949 9.949 0 0 1-.28.005l-.242.005V30.819l.193-.003.27-.005c.134-.005.267-.013.401-.02l.275-.014c.09-.005.18-.008.267-.014.14-.01.278-.022.417-.035l.279-.023c.08-.006.159-.013.237-.021.155-.016.31-.036.464-.055l.239-.03c.074-.008.148-.016.221-.027.151-.02.3-.044.448-.067l.244-.038a9.94 9.94 0 0 0 .223-.035c.246-.042.49-.09.735-.14l.165-.032c.297-.062.592-.129.885-.2l.353-.093c.173-.044.346-.09.517-.138.077-.022.152-.045.227-.068l.24-.072c.13-.039.26-.078.388-.12.079-.025.156-.052.235-.08l.242-.083c.121-.04.241-.082.36-.125.082-.03.163-.062.244-.094l.242-.094a13.405 13.405 0 0 0 .583-.238l.237-.102a10.703 10.703 0 0 0 .556-.253l.231-.112a11.673 11.673 0 0 0 .545-.275L39.96 28c.098-.052.197-.104.294-.158.08-.045.16-.093.239-.14l.207-.121c.095-.056.19-.111.284-.169l.144-.091.002.01.124.437c.037.128.075.258.108.39.058.223.11.45.163.678l.106.454c.031.127.061.253.088.381.053.245.1.495.145.745l.087.455c.023.12.047.241.068.363.05.293.094.593.136.892l.06.406c.018.104.033.206.047.31.055.424.1.856.143 1.288l.02.175c.008.065.016.13.022.195.104 1.117.17 2.28.197 3.455l.001.306c.007.403.012.807.01 1.214-.123.078-.248.153-.373.23l-.209.13c-.209.124-.421.243-.635.361l-.192.11c-.226.123-.455.24-.684.356l-.162.084c-.26.13-.524.254-.79.375l-.045.021c-.896.406-1.802.756-2.718 1.054l-.159.049c-.255.08-.51.16-.767.234l-.364.098c-.19.052-.382.105-.574.152a9.033 9.033 0 0 1-.218.05l-.266.061c-.156.037-.311.074-.468.107-.08.017-.159.032-.239.047l-.285.055c-.146.029-.292.058-.44.083-.084.015-.17.028-.255.04l-.303.049c-.138.022-.278.045-.417.064-.092.013-.186.024-.279.034l-.3.036c-.134.018-.27.035-.406.049-.096.01-.192.017-.287.025l-.314.028c-.131.011-.263.024-.394.032-.092.007-.184.011-.275.015l-.317.017c-.137.008-.276.016-.414.02l-.002.002Zm15.012-5.067c-.108.08-.219.155-.33.232l-.107.074v-.274c-.002-.207-.002-.414-.008-.617-.004-.212-.014-.42-.023-.628l-.023-.564a30.936 30.936 0 0 0-.025-.586 28.384 28.384 0 0 0-.05-.69l-.04-.522c-.012-.176-.024-.351-.04-.523-.026-.278-.059-.551-.091-.824l-.054-.474c-.014-.131-.028-.264-.045-.393a42.79 42.79 0 0 0-.212-1.407l-.037-.241a39.266 39.266 0 0 0-.308-1.606l-.035-.15a35.867 35.867 0 0 0-.333-1.403c-.022-.087-.047-.171-.071-.257l-.082-.292a34.658 34.658 0 0 0-.171-.615l.084-.063.22-.16c.067-.048.133-.095.197-.144.201-.154.393-.314.584-.474l.062-.05c.034-.027.068-.054.1-.082.24-.205.47-.417.692-.633.053-.05.104-.104.154-.157l.16-.165a6.811 6.811 0 0 0 .498-.538l.167-.193c.086-.1.171-.197.251-.298.059-.073.114-.148.169-.222l.156-.209c.07-.092.141-.185.206-.28.057-.081.11-.163.162-.246l.135-.21c.06-.092.121-.183.176-.277l.029-.05.114.161c.068.098.138.195.204.296.107.162.207.328.309.494l.213.346c.062.099.124.197.183.297.101.175.196.353.291.532l.193.354c.054.098.11.197.16.297.093.182.18.368.267.555l.18.376c.047.1.096.197.14.297.088.196.169.396.25.597l.155.375c.042.1.085.199.124.3.085.22.163.446.24.67l.133.376c.032.089.065.178.095.269.145.444.282.898.405 1.35.023.085.044.172.065.259l.084.336c.053.21.108.42.158.632a20.7 20.7 0 0 1-.419.759 3.49 3.49 0 0 0-.068.126c-.02.039-.04.078-.064.116a18.97 18.97 0 0 1-.718 1.12c-.05.072-.105.143-.158.215l-.222.3c-.138.19-.275.38-.423.563-.074.094-.153.184-.232.274l-.29.341c-.119.141-.238.283-.363.42-.086.095-.177.186-.268.278l-.324.331a12.71 12.71 0 0 1-.373.38c-.096.09-.196.18-.296.267l-.34.306c-.133.123-.267.245-.408.364-.102.087-.21.17-.316.252l-.355.283c-.146.117-.291.234-.443.347Zm-30.014-11.76c-.06.207-.118.418-.174.628l-.079.278c-.024.085-.049.17-.07.257-.12.46-.23.93-.333 1.403l-.036.149a40.39 40.39 0 0 0-.31 1.607l-.035.24c-.077.464-.15.93-.213 1.407-.017.128-.03.26-.045.39l-.054.478c-.033.273-.065.545-.091.823-.016.169-.028.34-.04.51l-.041.548a21.093 21.093 0 0 0-.074 1.264l-.022.553c-.01.211-.02.423-.024.638-.005.203-.005.41-.006.617v.274l-.108-.073c-.111-.077-.223-.153-.33-.233-.157-.116-.308-.239-.46-.36l-.346-.275c-.104-.082-.21-.163-.31-.248-.152-.129-.298-.263-.444-.396l-.321-.29c-.094-.082-.188-.165-.277-.25-.15-.145-.295-.296-.438-.446l-.297-.305c-.077-.078-.156-.156-.23-.237-.173-.19-.336-.385-.499-.58l-.225-.264a6.507 6.507 0 0 1-.162-.19c-.256-.32-.494-.651-.673-.904l-.071-.096a2.149 2.149 0 0 1-.058-.079 18.95 18.95 0 0 1-.72-1.122l-.047-.087c-.188-.32-.354-.621-.503-.913.05-.21.102-.416.156-.623l.087-.348c.02-.086.041-.172.064-.257.124-.454.261-.91.406-1.352.029-.087.06-.173.092-.258l.123-.346c.082-.238.164-.476.254-.709.04-.103.082-.203.125-.303l.158-.382c.079-.196.16-.393.245-.586.047-.105.097-.207.146-.31l.174-.364c.087-.186.174-.373.267-.554.052-.103.108-.202.163-.302l.2-.367c.092-.172.185-.345.282-.514.061-.105.126-.207.19-.31l.217-.352c.097-.16.194-.319.296-.475.072-.109.147-.214.221-.32l.097-.139.029.049c.064.108.133.213.203.32l.13.198a6.08 6.08 0 0 0 .405.573l.127.17c.045.06.09.121.137.181.116.145.24.285.362.426l.106.124c.04.046.078.093.12.139.166.183.341.36.52.537l.122.126a16.173 16.173 0 0 0 1.442 1.243c.057.044.117.087.177.129l.204.149.119.087v.004ZM4.85 31.569c-.094.435-.184.903-.267 1.391a23.874 23.874 0 0 1-.442-3.062l.07.183.097.256c.067.168.138.334.21.5l.085.2c.08.177.162.355.249.533l-.002-.001Zm47.143-1.671a23.892 23.892 0 0 1-.443 3.062 32.72 32.72 0 0 0-.267-1.391c.086-.177.169-.356.249-.534l.087-.205c.07-.163.141-.326.207-.492l.102-.27.065-.17Zm-.04-4.211c-.082.703-.21 1.409-.383 2.102l-.027.099c-.05.198-.105.397-.163.595l-.066.208c-.05.16-.1.32-.155.48l-.094.26c-.057.156-.105.29-.157.425l-.028.068-.014-.052c-.053-.193-.112-.382-.17-.573l-.12-.396a15.864 15.864 0 0 0-.131-.427c-.065-.198-.136-.39-.206-.584l-.137-.38c-.047-.131-.093-.264-.143-.392-.08-.205-.165-.406-.25-.606l-.153-.365c-.047-.116-.094-.231-.145-.344-.098-.219-.203-.431-.307-.645l-.16-.33c-.047-.099-.093-.199-.144-.296-.144-.28-.298-.555-.453-.83l-.104-.189a5.78 5.78 0 0 0-.114-.207c-.234-.4-.48-.795-.731-1.177a8.354 8.354 0 0 0-.215-.308l-.24-.345c-.057-.082-.112-.164-.17-.246.046-.097.092-.195.134-.293.019-.043.036-.086.052-.13l.053-.132c.04-.1.081-.2.118-.3l.044-.133.044-.13a7.92 7.92 0 0 0 .1-.306c.014-.048.028-.096.04-.145l.04-.146c.026-.094.052-.187.075-.282a5.46 5.46 0 0 0 .034-.161l.034-.159c.018-.085.037-.172.052-.258.011-.06.02-.12.028-.182l.026-.174a5.419 5.419 0 0 0 .055-.466l.015-.173c.006-.058.011-.115.015-.173a9.966 9.966 0 0 0-.017-1.397 4.547 4.547 0 0 0-.021-.186l-.012-.094c-.023-.202-.041-.364-.067-.527a4.387 4.387 0 0 0-.041-.208l.122.099c.053.043.108.087.161.132.148.126.294.257.438.388l.225.2c.202.187.4.379.595.574a23.765 23.765 0 0 1 2.838 9.221v-.004ZM9.36 21.232l-.17.247-.244.35c-.071.1-.143.2-.21.303-.25.379-.496.775-.73 1.176-.043.072-.082.146-.122.22l-.112.205c-.15.265-.299.53-.438.803a8.32 8.32 0 0 0-.144.296l-.16.33c-.105.214-.209.427-.306.645-.05.113-.098.228-.146.344l-.158.375c-.084.197-.167.394-.245.595-.05.127-.094.256-.14.386l-.14.388c-.07.193-.14.385-.205.582-.047.14-.09.285-.132.43l-.122.4c-.058.188-.115.376-.168.566l-.014.051-.03-.07c-.04-.104-.079-.21-.117-.316l-.065-.18a11.732 11.732 0 0 1-.179-.532l-.055-.171-.057-.183c-.033-.114-.064-.23-.095-.344l-.05-.187c-.016-.056-.032-.113-.046-.169-.03-.116-.055-.233-.08-.35l-.08-.359c-.03-.143-.054-.289-.08-.434l-.05-.278a17.125 17.125 0 0 1-.092-.669 23.724 23.724 0 0 1 2.84-9.215c.194-.196.392-.387.593-.574l.2-.177c.154-.139.307-.277.463-.41l.17-.14.113-.09c-.014.068-.029.138-.04.207a9.423 9.423 0 0 0-.06.468l-.02.157a4.29 4.29 0 0 0-.021.182 9.781 9.781 0 0 0-.017 1.398c.002.053.008.105.013.157l.014.16c.007.09.014.18.025.268.009.073.02.144.03.215l.026.17a5.097 5.097 0 0 0 .084.46l.033.156c.01.053.02.107.033.16.023.093.049.186.074.277l.042.152c.012.049.024.096.04.145.028.098.062.195.095.292l.047.139c.015.046.03.092.047.138.036.1.077.201.118.302l.053.131c.017.043.033.087.052.13.042.098.087.195.133.293h.002Zm31.46 5.062-.058.037-.302.194c-.13.08-.261.157-.395.234l-.298.175c-.15.083-.304.165-.457.245l-.26.137c-.182.093-.37.181-.557.27l-.182.087c-.214.098-.431.19-.65.283l-.112.048a23.122 23.122 0 0 1-4.1 1.248l-.157.03c-.235.047-.47.093-.707.134l-.249.04c-.23.036-.428.069-.63.096l-.368.045c-.174.022-.347.043-.522.062l-.428.037a20.38 20.38 0 0 1-.47.039l-.503.026a15.038 15.038 0 0 1-.655.025l-.176.003v-9.936l.069-.003.36-.012c.104-.003.21-.006.313-.012.208-.013.414-.034.618-.055l.305-.03c.094-.008.187-.015.279-.027.256-.032.505-.075.754-.117l.2-.032c.073-.01.145-.021.215-.035.384-.073.763-.159 1.128-.255a2.4 2.4 0 0 0 .125-.037l.074-.023c.298-.082.594-.167.882-.264.086-.029.169-.061.252-.094l.267-.1c.172-.064.344-.127.51-.197.091-.039.178-.081.265-.123l.27-.127a5.121 5.121 0 0 0 .698-.359l.255-.147.193.25c.105.136.21.27.31.41.071.097.139.197.207.297l.236.344c.09.129.18.258.267.391.072.11.14.223.208.336l.227.369c.078.124.156.248.23.375.074.128.145.26.216.391l.214.39c.065.114.128.228.189.345.197.38.39.773.572 1.168.044.096.087.195.128.293l.167.382c.08.178.158.356.233.539.046.114.09.23.133.346l.161.421c.063.162.127.324.186.491.043.123.085.248.125.373l.144.43.051.151v-.002Zm-13.269-6.441v9.936l-.176-.003-.25-.005c-.136-.005-.27-.013-.405-.02l-.504-.026c-.158-.01-.314-.026-.472-.04l-.427-.037c-.175-.018-.35-.04-.524-.062l-.366-.044c-.2-.027-.4-.06-.6-.092l-.279-.044a24.247 24.247 0 0 1-.711-.135l-.153-.03a23.12 23.12 0 0 1-4.098-1.248l-.1-.042a20.971 20.971 0 0 1-.662-.288l-.18-.087a17.92 17.92 0 0 1-.56-.27l-.266-.142c-.151-.08-.302-.157-.45-.24l-.291-.172c-.135-.077-.27-.155-.402-.237l-.297-.191-.062-.04.046-.135.142-.426c.043-.132.085-.264.131-.393.06-.17.125-.336.19-.502l.157-.411c.044-.116.087-.231.133-.344.076-.188.157-.371.239-.555l.163-.373c.041-.097.082-.194.125-.288.184-.398.376-.79.572-1.166.062-.119.126-.234.191-.35l.21-.381c.072-.133.144-.266.219-.395.074-.128.152-.252.23-.376l.225-.364c.069-.114.138-.228.21-.34.085-.13.174-.257.263-.384l.234-.34c.07-.103.14-.207.213-.308.1-.136.201-.267.304-.399l.2-.26.256.148c.086.05.172.102.262.149.141.074.289.14.436.208l.271.127c.088.043.174.085.265.123.164.07.334.132.505.195l.276.104c.082.033.163.064.248.093.287.097.584.183.882.265l.073.022c.041.013.083.026.125.037.366.096.745.182 1.128.255.071.014.144.025.218.035l.211.034c.244.041.49.083.739.114.093.012.185.02.279.028l.303.029c.205.02.41.042.62.055.103.006.208.01.314.012l.359.012.068.004Zm-8.713-2.609c-.024.034-.05.067-.075.1l-.215.282c-.057.075-.115.15-.17.226-.142.194-.277.394-.412.593l-.17.25a8.471 8.471 0 0 0-.159.232c-.15.232-.294.47-.439.709l-.128.21a7.62 7.62 0 0 0-.125.203c-.221.38-.437.772-.643 1.167l-.101.207c-.168.33-.335.664-.493 1.004-.04.087-.078.177-.116.266l-.13.296c-.102.23-.204.46-.3.695-.041.102-.08.207-.12.312l-.127.33c-.085.217-.17.435-.249.658-.038.107-.074.216-.11.325l-.124.37-.023-.017c-.065-.047-.13-.093-.194-.142-.102-.078-.2-.16-.299-.241l-.214-.175a6.242 6.242 0 0 1-.186-.153c-.097-.084-.19-.17-.282-.257l-.204-.189c-.056-.049-.11-.1-.164-.15-.1-.098-.194-.198-.29-.298l-.178-.186-.13-.135c-.155-.171-.301-.346-.445-.522l-.101-.118a12.574 12.574 0 0 1-.49-.658l-.064-.1-.094-.146a10.58 10.58 0 0 1-.275-.43 4.013 4.013 0 0 1-.08-.145l-.106-.194-.047-.084.086-.11.238-.302c.07-.091.14-.182.213-.271.078-.095.158-.186.239-.278l.26-.302c.09-.104.178-.208.27-.31.062-.068.127-.134.19-.2l.13-.135a24.41 24.41 0 0 1 1.059-1.056l.128-.123.158-.15c.111-.101.226-.199.34-.296l.301-.26c.086-.075.171-.15.26-.223.108-.09.22-.176.331-.263l.317-.248c.097-.078.194-.156.294-.23.11-.084.225-.164.339-.244l.322-.23c.106-.077.214-.154.323-.23.117-.079.237-.155.357-.232l.28-.18c.07.094.143.188.217.28.201.243.391.448.587.64a8.712 8.712 0 0 0 1.033.858Zm23.078 8.278c-.059.045-.12.088-.18.132l-.034.025-.012-.033-.122-.364c-.033-.099-.065-.198-.1-.295-.098-.274-.203-.542-.308-.81l-.095-.247c-.03-.081-.06-.163-.093-.242-.135-.33-.278-.652-.423-.973L40.5 22.6a5.758 5.758 0 0 0-.074-.168c-.38-.821-.796-1.624-1.24-2.384a3.443 3.443 0 0 0-.082-.134l-.056-.091c-.18-.303-.363-.604-.553-.896a6.407 6.407 0 0 0-.142-.208l-.147-.216c-.148-.22-.296-.439-.45-.651a7.06 7.06 0 0 0-.17-.223l-.21-.276-.082-.11a9.293 9.293 0 0 0 1.03-.857l.005-.004a7.665 7.665 0 0 0 .802-.918l.287.186c.117.075.236.15.35.229.121.082.238.167.355.252l.329.234c.1.072.202.143.3.216.117.088.231.18.345.27l.31.245c.097.075.193.15.288.228.11.091.218.186.326.28l.306.265c.09.078.18.155.268.234.115.104.226.212.337.32l.135.13c.283.271.559.547.827.83l.14.147c.077.078.153.157.227.238.088.097.173.197.259.298l.264.306c.083.094.166.188.245.285.074.09.145.182.215.274l.24.304.083.105-.032.057-.114.208c-.028.053-.057.107-.087.159-.066.111-.138.22-.21.329l-.133.205c-.029.048-.059.096-.091.141-.154.222-.317.441-.489.657l-.132.155c-.135.164-.269.327-.414.485-.04.044-.082.087-.123.13l-.174.18c-.098.104-.197.208-.301.31-.049.047-.099.092-.15.138l-.193.177c-.102.094-.202.189-.308.28a6.18 6.18 0 0 1-.167.138l-.205.167c-.108.09-.215.179-.328.265Zm-25.449-10.94-.004.002-.338.219c-.114.073-.228.145-.338.221-.142.096-.279.196-.417.296l-.304.217c-.1.07-.202.142-.3.215-.151.114-.298.232-.446.349l-.136.108a26.5 26.5 0 0 0-.819.678l-.144.123c-.122.103-.244.207-.362.314-.103.093-.203.19-.302.286l-.273.26c-.106.1-.213.2-.315.302-.102.101-.201.206-.3.311l-.26.272a11.526 11.526 0 0 0-.573.632l-.237.274a12.145 12.145 0 0 0-.522.631l-.052-.13a5.243 5.243 0 0 1-.132-.371l-.048-.147a4.67 4.67 0 0 1-.048-.146c-.022-.072-.04-.145-.06-.219l-.041-.155a4.623 4.623 0 0 1-.083-.355l-.035-.171c-.01-.044-.02-.088-.027-.132a5.551 5.551 0 0 1-.036-.238l-.041-.284c-.012-.097-.02-.197-.028-.296l-.02-.226a8.676 8.676 0 0 1 .017-1.267c.002-.028.006-.054.01-.08l.013-.102c.019-.187.04-.374.071-.56.008-.047.02-.095.03-.143l.044-.21c.026-.13.05-.258.083-.387.021-.082.047-.163.071-.245l.077-.257.024-.084.26-.17.214-.14c.087-.057.173-.114.26-.169.249-.154.5-.304.756-.446.056-.032.114-.06.171-.09l.234-.124c.149-.08.297-.16.449-.235.061-.03.125-.059.19-.088l.252-.118c.144-.069.289-.137.435-.201l.217-.089.267-.11c.138-.057.276-.114.416-.167.076-.029.153-.055.23-.082l.277-.098c.139-.05.277-.1.418-.144.081-.027.165-.051.248-.075l.275-.082c.14-.043.28-.086.423-.125l.145-.037a.745.745 0 0 0-.013.061c-.02.106-.035.213-.05.319-.011.079-.017.115-.02.152a4.72 4.72 0 0 0 .026 1.168c.008.058.021.115.036.172l.027.13c.024.129.05.256.087.383.02.068.046.135.072.202l.06.165c.035.102.07.202.115.303.032.07.069.139.106.207l.011.022h.007Zm29.797-.494.02.075.078.26c.026.085.052.168.074.251.031.124.055.247.08.37l.046.221c.011.05.023.099.03.148.03.171.047.343.066.515l.017.129c.005.033.01.067.012.1a8.705 8.705 0 0 1 .016 1.266l-.021.25c-.007.09-.014.182-.025.272a6.79 6.79 0 0 1-.018.124l-.023.166c-.011.076-.022.154-.036.23l-.061.301c-.014.073-.03.145-.046.217-.012.049-.026.097-.04.146l-.04.153c-.019.072-.038.144-.059.214l-.047.148-.05.15a9.952 9.952 0 0 1-.071.215l-.057.149-.052.133a11.77 11.77 0 0 0-.516-.624l-.236-.273a13.26 13.26 0 0 0-.297-.338c-.092-.101-.187-.2-.283-.3l-.256-.267c-.1-.106-.201-.214-.306-.318-.1-.1-.205-.198-.309-.296l-.281-.268c-.099-.095-.198-.19-.3-.283-.116-.107-.238-.21-.36-.314l-.145-.124a25.483 25.483 0 0 0-.835-.69l-.153-.122c-.136-.108-.272-.217-.412-.322-.1-.075-.203-.148-.305-.22l-.312-.222a12.456 12.456 0 0 0-.742-.507l-.33-.215-.012-.008.01-.019c.037-.07.075-.14.107-.211.044-.099.08-.2.116-.302l.06-.165c.026-.067.052-.134.072-.2.037-.128.062-.254.086-.38l.03-.136a2.24 2.24 0 0 0 .035-.17 4.911 4.911 0 0 0 .027-1.17 1.898 1.898 0 0 0-.015-.112l-.115.005-.004-.025-.003-.015.113-.018a4.65 4.65 0 0 0-.06-.368c.049.012.098.024.147.039.13.035.258.075.387.113l.284.086c.092.027.185.054.275.083.125.04.25.084.373.13l.294.103.257.091c.127.049.251.1.375.152l.286.116.24.099c.135.06.268.123.4.185l.267.125c.07.031.14.063.208.097.163.08.323.167.483.253l.212.112c.053.027.107.054.159.083.28.156.554.319.825.488.053.033.104.068.155.102l.206.135c.102.066.204.132.306.2l-.001.002ZM35.766 16.99l-.11.064a5.66 5.66 0 0 1-.24.138 7.3 7.3 0 0 1-.362.172l-.295.139c-.078.038-.157.076-.239.11a9.284 9.284 0 0 1-.45.174l-.289.11c-.071.027-.142.056-.216.08-.242.082-.492.152-.743.222l-.133.04a2.042 2.042 0 0 1-.135.04c-.346.091-.704.172-1.06.24l-.181.028c-.304.054-.609.106-.92.144-.07.01-.14.015-.21.02l-.287.028c-.213.022-.424.044-.64.058-.087.005-.174.007-.261.01l-.313.01-.1.005v-7.32l.049.021.1.045.264.12.157.077.273.134.195.102c.095.05.191.1.292.156l.227.128c.1.057.204.116.31.179l.252.153a17.38 17.38 0 0 1 .95.624 21.374 21.374 0 0 1 .653.475c.1.076.199.15.3.23.126.099.253.204.38.31l.066.053c.079.066.16.132.24.2.12.103.241.211.362.32l.13.118.211.19c.129.121.26.25.39.378l.15.147c.058.055.115.11.172.17.176.177.35.368.526.56l.086.092.105.111c.115.128.23.26.343.394h.001Zm-8.215-5.487v7.317l-.1-.004-.313-.01c-.088-.003-.176-.004-.262-.01-.21-.013-.416-.034-.622-.056l-.299-.03a5.896 5.896 0 0 1-.216-.02 16.746 16.746 0 0 1-.883-.14l-.218-.034a16.711 16.711 0 0 1-1.059-.239 3.11 3.11 0 0 1-.16-.048l-.211-.062c-.216-.061-.432-.122-.64-.193a4.555 4.555 0 0 1-.228-.085l-.299-.113c-.144-.053-.29-.106-.429-.166-.085-.036-.167-.076-.25-.115l-.288-.136a8.367 8.367 0 0 1-.359-.171c-.083-.043-.162-.09-.242-.138l-.107-.063c.114-.134.229-.264.342-.393l.11-.117.092-.098c.172-.188.344-.374.515-.55l.186-.183.165-.161a13.028 13.028 0 0 1 .568-.537l.138-.125c.12-.107.24-.215.357-.315.089-.076.175-.147.262-.218l.048-.039c.127-.105.253-.208.377-.306.096-.075.189-.145.283-.217a22.651 22.651 0 0 1 1.293-.907c.111-.07.22-.14.326-.205l.256-.155a15.1 15.1 0 0 1 .306-.177l.23-.13.286-.153.2-.104c.094-.049.182-.09.27-.133l.157-.077.262-.119.105-.048.05-.02.001.003Zm10.694 3.413-.04.056c-.028.04-.056.082-.088.122-.113.14-.244.272-.372.405a3.61 3.61 0 0 0-.079.086c-.02.022-.039.045-.061.066-.186.18-.39.357-.607.528-.039.032-.081.06-.123.09l-.164.116-.065.048c-.14-.165-.279-.324-.419-.481l-.198-.217c-.173-.19-.346-.375-.519-.553-.08-.084-.162-.165-.243-.246a22.252 22.252 0 0 0-.49-.475l-.226-.212a22.386 22.386 0 0 0-.601-.531l-.093-.082c-.23-.193-.456-.376-.68-.55l-.197-.15a25.13 25.13 0 0 0-.467-.347l-.226-.16a25.261 25.261 0 0 0-.428-.292l-.004-.003c.214.065.392.12.574.18l.065.022c.201.065.406.136.613.208l.127.045c.212.076.426.154.644.237l.059-.1.052.02-.04.108c.207.08.42.164.634.253l.101.041c.226.094.454.192.684.295l.13.058a28.9 28.9 0 0 1 1.451.703l.13.066c.239.127.48.257.723.394l.115.066c.11.062.22.125.328.19v-.004Zm-13.966-2.783-.008.006c-.138.091-.277.186-.421.287l-.23.163c-.152.11-.306.225-.462.344l-.202.153c-.224.175-.449.357-.678.55l-.1.086c-.196.168-.395.343-.595.526l-.227.214a24.354 24.354 0 0 0-1.253 1.273l-.199.217c-.14.157-.278.316-.418.481l-.067-.05-.164-.116a2.602 2.602 0 0 1-.121-.088 7.867 7.867 0 0 1-.608-.53.51.51 0 0 1-.042-.046 1.404 1.404 0 0 0-.069-.075 6.308 6.308 0 0 1-.4-.437 1.77 1.77 0 0 1-.08-.11l-.047-.066.329-.19.115-.066c.242-.136.483-.266.723-.393l.097-.05c.51-.265 1-.501 1.484-.719l.13-.058c.23-.102.458-.201.683-.294l.064-.026c.252-.103.463-.188.671-.267l-.023-.114.054-.02.04.107c.219-.083.432-.162.643-.237l.13-.047c.206-.072.411-.142.61-.207l-.025-.112.05-.016.042.106c.186-.06.368-.117.545-.17l.028-.01.001.001Zm14.698-1.107.01.03c.015.038.03.075.04.113.012.038.022.078.031.118l.038.147c.01.037.02.074.027.111.011.057.02.115.026.171l.02.133c.005.026.01.05.012.076a3.73 3.73 0 0 1-.021.928.863.863 0 0 1-.019.086l-.023.106-.013.064c-.018.095-.036.192-.064.286-.012.042-.03.084-.046.125l-.072.196c-.025.072-.05.145-.081.217a1.33 1.33 0 0 1-.054.107c-.14-.082-.278-.163-.416-.24l-.11-.064a28.346 28.346 0 0 0-.782-.421l-.16-.083c-.253-.13-.506-.257-.757-.377l-.144-.068a28.782 28.782 0 0 0-1.535-.673l-.138-.057a28.334 28.334 0 0 0-.692-.268l-.155-.058a31.554 31.554 0 0 0-.664-.236l-.117-.04c-.21-.07-.416-.138-.616-.202l-.066-.02a27.85 27.85 0 0 0-.617-.187l-.121-.035a35.438 35.438 0 0 0-.56-.155l-.107-.029-.261-.068.169-.02.143-.018c.166-.02.34-.04.519-.056l.147-.013c.188-.018.38-.034.58-.048l.1-.006c.187-.012.378-.023.574-.03l.135-.007c.212-.008.428-.013.65-.016l.169-.002c.223-.001.45 0 .682.005l.157.003c.24.007.483.015.73.029l.024-.113.053.002-.006.114c.243.014.49.033.74.055l.153.013c.254.024.51.053.77.087l.173.022c.264.037.53.076.8.122l.129.024c.206.036.41.076.617.118v.002Zm-13.612-.265-.256.066-.122.032c-.176.047-.36.098-.55.152l-.13.038c-.197.057-.398.118-.607.183l-.057.019c-.217.068-.42.135-.626.204l-.121.042c-.215.074-.437.152-.66.235l-.16.06c-.226.084-.456.173-.69.266l-.138.057c-.24.098-.484.199-.731.307l-.044.02c-.248.108-.503.226-.76.347l-.143.068c-.25.12-.503.245-.758.377l-.126.065c-.293.152-.554.293-.816.439l-.108.062c-.139.078-.278.158-.417.24a1.364 1.364 0 0 1-.054-.107c-.032-.072-.057-.145-.082-.218l-.072-.194a1.336 1.336 0 0 1-.046-.125c-.027-.094-.044-.19-.063-.285l-.013-.066a2.552 2.552 0 0 0-.024-.107 1.004 1.004 0 0 1-.018-.085 3.85 3.85 0 0 1-.02-.929c.002-.025.007-.053.012-.08l.02-.136c.007-.054.014-.108.025-.162.008-.038.018-.075.029-.113l.037-.144c.01-.04.018-.08.03-.12.013-.04.028-.079.042-.118l.009-.024c.22-.045.424-.084.626-.12l.114-.021c.276-.048.549-.089.82-.126l.144-.019c.27-.034.538-.065.802-.09l.06-.005a24.648 24.648 0 0 1 1.663-.096l.018-.114.063-.002.002.114c.254-.005.503-.006.745-.005h.094a27.932 27.932 0 0 1 2.133.114l.024-.112.042.004-.01.114c.206.019.405.041.597.064l.026-.112.038.004-.013.113.221.027-.001.002Zm21.762 2.655.026.034-.018-.013-.008-.02Zm-38.128.021-.018.014.025-.034-.008.021H9Zm29.73-6.941c1.6.794 3.111 1.77 4.498 2.901a13.756 13.756 0 0 1 .965 1.032l.112.14c.11.132.218.266.32.403l.138.193c.103.142.181.25.255.36.032.048.06.096.09.143l.09.143c.058.093.117.185.172.279.033.058.065.116.096.175l.077.143.012.022-.051-.03c-.097-.058-.193-.115-.291-.169-.122-.067-.245-.13-.369-.195l-.25-.13c-.09-.049-.183-.097-.276-.142-.128-.064-.258-.123-.389-.182l-.256-.117c-.09-.043-.182-.085-.274-.125-.14-.06-.28-.116-.42-.171l-.26-.104a13.409 13.409 0 0 0-.263-.106c-.165-.062-.333-.118-.5-.176l-.246-.085c-.073-.026-.147-.052-.221-.076a21.877 21.877 0 0 0-1.15-.332l-.099-.025c-.18-.047-.348-.09-.515-.13a6.577 6.577 0 0 1-.057-.112l-.056-.11a1.652 1.652 0 0 0-.066-.131 6.2 6.2 0 0 0-.361-.565c-.006-.01-.025-.032-.032-.041a6.809 6.809 0 0 0-.4-.5 2.718 2.718 0 0 0-.097-.105l-.05-.051a8.193 8.193 0 0 0-.348-.36c-.043-.041-.09-.082-.138-.122l-.118-.104c-.098-.088-.195-.175-.3-.26a3.804 3.804 0 0 0-.172-.13l-.137-.101c-.1-.076-.2-.152-.307-.225-.064-.044-.13-.086-.197-.128l-.153-.097-.045-.03.228-.062.204-.057c.058-.017.117-.034.174-.048.205-.053.408-.097.61-.14l.19-.044c.213-.043.424-.082.63-.115l.004-.001Zm-22.32 3.637a28.35 28.35 0 0 0-.553.14l-.267.068c-.318.086-.634.18-.945.28-.066.02-.13.043-.194.066l-.21.073c-.19.065-.377.128-.562.198-.078.029-.155.06-.23.092l-.25.1c-.156.062-.311.123-.466.19-.083.036-.165.075-.248.113l-.237.108c-.145.066-.291.132-.434.203-.087.042-.171.087-.257.132l-.23.12a9.774 9.774 0 0 0-.672.369l-.075.043.02-.036.07-.127c.031-.06.063-.118.096-.176.051-.087.106-.174.16-.26l.095-.15c.033-.053.065-.106.099-.157.057-.086.12-.173.18-.258l.113-.158c.032-.047.065-.093.1-.138.075-.1.155-.2.236-.298l.103-.128c.03-.04.061-.079.094-.118.103-.121.212-.24.32-.36l.153-.171c.165-.175.336-.349.514-.519a24.12 24.12 0 0 1 4.47-2.878c.208.034.419.072.631.115l.221.051c.193.042.385.084.579.133.066.017.132.036.198.055l.22.062.19.052-.033.02-.156.1c-.07.044-.141.088-.208.135-.1.067-.194.139-.289.211l-.149.111a3.47 3.47 0 0 0-.177.135 6.054 6.054 0 0 0-.276.238l-.136.12c-.049.042-.098.084-.144.128-.111.106-.212.214-.313.323l-.08.083c-.035.037-.07.072-.102.109a7.008 7.008 0 0 0-.401.503l-.03.038a6.371 6.371 0 0 0-.36.565 1.852 1.852 0 0 0-.067.133l-.057.113-.056.107.001-.002Zm18.966-2.738c.14.072.276.148.411.225l.05.026c.229.132.432.26.626.392.034.023.067.048.1.073l.153.11c.102.074.205.147.301.224.04.032.077.064.113.097l.154.132c.077.066.156.133.228.2.04.038.078.078.115.118l.128.13c.065.066.13.132.19.2.038.04.071.084.106.126l.11.135a2.886 2.886 0 0 1 .214.282l-.337-.054-.103-.016a24.125 24.125 0 0 0-2.526-.25l-.105-.004a26.271 26.271 0 0 0-1.134-.026h-.047c-.354 0-.691.007-1.017.019l-2.587.223.557-.327c.127-.072.26-.147.394-.221l.124-.07c.18-.099.365-.198.555-.298l.128-.066c.15-.078.3-.155.454-.231l.207-.1c.133-.066.269-.131.406-.196l.21-.097c.16-.074.3-.135.442-.198l.23-.1c.155-.067.314-.131.472-.195l.194-.079c.16-.062.32-.124.483-.183v-.001ZM21.966 9.513c-.16 0-.323.002-.488.004l-.097.003a25.424 25.424 0 0 0-1.65.09l-.13.012c-.272.025-.548.055-.826.09l-.14.02c-.287.037-.576.08-.87.13h-.007l.056-.081c.046-.062.095-.122.144-.182l.118-.146c.037-.045.072-.09.11-.133.056-.063.117-.124.178-.185l.136-.139c.04-.041.079-.082.121-.122.07-.067.147-.131.223-.195l.154-.133a2.65 2.65 0 0 1 .118-.1 6.84 6.84 0 0 1 .334-.247l.126-.092c.03-.023.06-.046.093-.067a9.52 9.52 0 0 1 .61-.382c.162-.094.32-.18.478-.261.162.06.323.12.483.183l.195.079c.157.063.315.126.468.193l.239.103c.138.06.276.121.41.183l.237.11c.136.063.27.126.4.19l.215.106c.15.075.296.15.44.224l.142.072c.187.098.37.197.548.294l.143.08c.128.071.256.143.378.213l.556.327-.322-.041-.1-.012a27.078 27.078 0 0 0-.577-.062l-.057-.005a27.499 27.499 0 0 0-1.404-.096l-.085-.004a26.34 26.34 0 0 0-.713-.019l-.126-.001-.26-.001Zm3.384-3.54.067.119.062.113c.056.1.11.199.163.298l.895 1.845.448 1.044-.38-.24a33.916 33.916 0 0 0-.389-.237l-.065-.04a38.14 38.14 0 0 0-.496-.292l-.148-.084a44.014 44.014 0 0 0-.388-.219l-.204-.111a43.418 43.418 0 0 0-.37-.2l-.23-.12a31.3 31.3 0 0 0-.382-.193l-.246-.123c-.133-.065-.27-.13-.407-.195l-.243-.114c-.157-.072-.317-.143-.479-.214l-.192-.085c-.093-.04-.186-.08-.279-.118.196-.073.399-.138.602-.202l.284-.094c.077-.026.154-.053.234-.076.356-.103.723-.186 1.003-.248l.113-.028c.03-.008.06-.016.09-.022.3-.062.614-.118.936-.165l.002.002Zm8.696.836c-.093.038-.186.077-.278.117l-.196.086c-.16.07-.32.141-.477.214l-.244.113c-.137.065-.273.13-.406.195l-.246.123c-.129.065-.256.128-.38.193l-.23.12-.37.199-.204.111c-.132.073-.26.146-.386.218l-.15.085c-.17.1-.337.197-.496.292l-.055.034-.398.244-.38.239 1.127-2.469.216-.417c.055-.104.112-.207.169-.31l.056-.103.067-.12c.322.048.636.104.937.166l.084.021.114.029c.415.091.727.168 1.009.25.078.022.154.048.229.074l.274.09c.208.066.416.131.616.206h-.002Zm-4.37-.962c-.032.058-.062.113-.091.169l-.516 1.02c-.066.138-.132.275-.194.41l-.022.049c-.058.123-.112.244-.167.365l-.104.234V5.782c.23.006.455.016.672.03l.175.017c.082.006.164.012.245.02l.001-.002ZM27.55 5.78v2.312l-.105-.237-.164-.358-.023-.051a28.432 28.432 0 0 0-.194-.41l-.516-1.021-.091-.17.24-.018h.002l.18-.018c.215-.014.44-.023.67-.03l.001.001Zm9.584-.005a18.556 18.556 0 0 0-.782.214l-.234.067c-.225.07-.45.143-.677.22-.307-.144-.63-.281-.96-.407l-.054-.019c-.39-.147-.784-.28-1.173-.392a5.231 5.231 0 0 0-.27-.07l-.27-.067c-.248-.065-.497-.13-.753-.184-.111-.023-.225-.042-.339-.06l-.261-.044.054-.079.118-.174c.09-.128.179-.248.266-.361l.072-.086.022-.027c1.801.288 3.557.781 5.241 1.47Zm-12.364-.742-.265.045a6.97 6.97 0 0 0-.334.059c-.264.055-.52.122-.775.19l-.257.064c-.088.02-.176.041-.26.066a15.81 15.81 0 0 0-1.196.4c-.358.136-.684.274-.992.42a19.53 19.53 0 0 0-.678-.22c-.049-.017-.1-.03-.15-.044l-.091-.025a19.01 19.01 0 0 0-.616-.174 6.004 6.004 0 0 0-.16-.039 23.817 23.817 0 0 1 5.243-1.469l.033.04.036.044c.11.14.2.26.29.388l.096.142.077.112Zm2.78-.282c-.198.006-.396.015-.595.026l-.153.005c-.306.02-.611.047-.913.08l-.134-.211-.027-.042c-.091-.139-.18-.273-.27-.399l-.045-.063a23.95 23.95 0 0 1 1.41-.115h.014c.236-.012.475-.021.713-.027v.746Zm3.17-.604-.047.064c-.085.122-.17.25-.257.382l-.04.059-.133.21c-.302-.033-.607-.06-.912-.08l-.153-.005a22.367 22.367 0 0 0-.597-.027v-.745c.238.006.477.015.713.026h.014c.463.025.935.063 1.41.116h.001Z"/></g><defs><clipPath id="clip0_9_20"><path fill="#fff" d="M0 0h57v56H0z"/></clipPath></defs></svg>