<svg width="24" height="25" fill="none" xmlns="http://www.w3.org/2000/svg"><path d="M14.25 6.5H.75a.72.72 0 0 0-.527.223A.72.72 0 0 0 0 7.25V8a.72.72 0 0 0 .223.527.72.72 0 0 0 .527.223h13.5a.72.72 0 0 0 .527-.223A.72.72 0 0 0 15 8v-.75a.72.72 0 0 0-.223-.527.72.72 0 0 0-.527-.223Zm0 4.5H.75a.72.72 0 0 0-.527.223.72.72 0 0 0-.223.527v.75a.72.72 0 0 0 .223.527.72.72 0 0 0 .527.223h13.5a.72.72 0 0 0 .527-.223A.72.72 0 0 0 15 12.5v-.75a.72.72 0 0 0-.223-.527.72.72 0 0 0-.527-.223Zm0 4.5H.75a.72.72 0 0 0-.527.223.72.72 0 0 0-.223.527V17a.72.72 0 0 0 .223.527.72.72 0 0 0 .527.223h13.5a.72.72 0 0 0 .527-.223A.72.72 0 0 0 15 17v-.75a.72.72 0 0 0-.223-.527.72.72 0 0 0-.527-.223Z" fill="#070708"/></svg>